<svg xmlns="http://www.w3.org/2000/svg" width="920" height="340" viewBox="0 0 920 340" fill="none">
  <defs>
    <linearGradient id="sentryAreaGrad" x1="0" y1="0" x2="0" y2="1">
      <stop offset="0%" stop-color="#88001b" stop-opacity="0.6"/>
      <stop offset="75%" stop-color="#88001b" stop-opacity="0.1"/>
      <stop offset="100%" stop-color="#200009" stop-opacity="0.0"/>
    </linearGradient>
    <filter id="neonGlow" x="-20%" y="-20%" width="140%" height="140%">
      <feGaussianBlur stdDeviation="3" result="blur" />
      <feMerge>
        <feMergeNode in="blur" />
        <feMergeNode in="SourceGraphic" />
      </feMerge>
    </filter>
  </defs>

  <!-- Background Frame -->
  <rect width="920" height="340" rx="12" fill="#200009" stroke="#88001b" stroke-width="1.5" />

  <!-- Window Header Bar -->
  <rect x="0" y="0" width="920" height="42" rx="12" fill="#15000a" />
  <rect x="0" y="32" width="920" height="10" fill="#15000a" />
  <line x1="0" y1="42" x2="920" y2="42" stroke="#88001b" stroke-width="1" />

  <!-- Terminal Traffic Lights -->
  <circle cx="26" cy="21" r="6" fill="#ff5f58" />
  <circle cx="46" cy="21" r="6" fill="#ffbd2e" />
  <circle cx="66" cy="21" r="6" fill="#18c132" />

  <!-- Title -->
  <text x="460" y="26" fill="#e6ffe6" font-family="'Fira Code', Monaco, monospace" font-size="13" font-weight="600" text-anchor="middle">
    WhoIsMrSentry / 30-Day Contribution Activity Graph
  </text>

  <!-- Quick Stat Badges -->
  <text x="885" y="62" fill="#39ff14" font-family="Monaco, Consolas, monospace" font-size="12" font-weight="bold" text-anchor="end">
    Recent Contribs: 357  •  Avg: 11.9/day
  </text>

  <!-- Grids & Axis -->
  <line x1="65" y1="290.0" x2="885" y2="290.0" stroke="#88001b" stroke-opacity="0.3" stroke-dasharray="3,3" /><text x="53" y="294.0" fill="#e6ffe6" font-family="Monaco, Consolas, monospace" font-size="11" text-anchor="end">0</text><line x1="65" y1="239.8" x2="885" y2="239.8" stroke="#88001b" stroke-opacity="0.3" stroke-dasharray="3,3" /><text x="53" y="243.8" fill="#e6ffe6" font-family="Monaco, Consolas, monospace" font-size="11" text-anchor="end">7</text><line x1="65" y1="182.5" x2="885" y2="182.5" stroke="#88001b" stroke-opacity="0.3" stroke-dasharray="3,3" /><text x="53" y="186.5" fill="#e6ffe6" font-family="Monaco, Consolas, monospace" font-size="11" text-anchor="end">15</text><line x1="65" y1="132.3" x2="885" y2="132.3" stroke="#88001b" stroke-opacity="0.3" stroke-dasharray="3,3" /><text x="53" y="136.3" fill="#e6ffe6" font-family="Monaco, Consolas, monospace" font-size="11" text-anchor="end">22</text><line x1="65" y1="75.0" x2="885" y2="75.0" stroke="#88001b" stroke-opacity="0.3" stroke-dasharray="3,3" /><text x="53" y="79.0" fill="#e6ffe6" font-family="Monaco, Consolas, monospace" font-size="11" text-anchor="end">30</text>
  <text x="65.0" y="310" fill="#e6ffe6" font-family="Monaco, Consolas, monospace" font-size="11" text-anchor="middle">08-13</text><text x="206.38" y="310" fill="#e6ffe6" font-family="Monaco, Consolas, monospace" font-size="11" text-anchor="middle">08-18</text><text x="347.76" y="310" fill="#e6ffe6" font-family="Monaco, Consolas, monospace" font-size="11" text-anchor="middle">08-23</text><text x="489.14" y="310" fill="#e6ffe6" font-family="Monaco, Consolas, monospace" font-size="11" text-anchor="middle">08-28</text><text x="630.52" y="310" fill="#e6ffe6" font-family="Monaco, Consolas, monospace" font-size="11" text-anchor="middle">09-02</text><text x="771.9" y="310" fill="#e6ffe6" font-family="Monaco, Consolas, monospace" font-size="11" text-anchor="middle">09-07</text><text x="885.0" y="310" fill="#39ff14" font-family="Monaco, Consolas, monospace" font-size="11" text-anchor="middle">09-11</text>

  <!-- Area Fill -->
  <path d="M 65.0 139.5 C 69.7 152.6, 83.9 223.1, 93.28 218.33 C 102.7 213.6, 112.1 124.0, 121.55 110.83 C 131.0 97.7, 140.4 127.6, 149.83 139.5 C 159.3 151.4, 168.7 175.3, 178.1 182.5 C 187.5 189.7, 197.0 178.9, 206.38 182.5 C 215.8 186.1, 225.2 213.6, 234.66 204.0 C 244.1 194.4, 253.5 128.8, 262.93 125.17 C 272.4 121.6, 281.8 174.1, 291.21 182.5 C 300.6 190.9, 310.1 172.9, 319.48 175.33 C 328.9 177.7, 338.3 196.8, 347.76 196.83 C 357.2 196.8, 366.6 174.1, 376.03 175.33 C 385.5 176.5, 394.9 204.0, 404.31 204.0 C 413.7 204.0, 423.2 189.7, 432.59 175.33 C 442.0 161.0, 451.4 118.0, 460.86 118.0 C 470.3 118.0, 479.7 159.8, 489.14 175.33 C 498.6 190.9, 508.0 201.6, 517.41 211.17 C 526.8 220.7, 536.3 229.1, 545.69 232.67 C 555.1 236.3, 564.5 232.7, 573.97 232.67 C 583.4 232.7, 592.8 232.7, 602.24 232.67 C 611.7 232.7, 621.1 232.7, 630.52 232.67 C 639.9 232.7, 649.4 232.7, 658.79 232.67 C 668.2 232.7, 677.6 250.6, 687.07 232.67 C 696.5 214.8, 705.9 119.2, 715.34 125.17 C 724.8 131.1, 734.2 241.0, 743.62 268.5 C 753.0 296.0, 762.5 286.4, 771.9 290.0 C 781.3 293.6, 790.7 292.4, 800.17 290.0 C 809.6 287.6, 819.0 275.7, 828.45 275.67 C 837.9 275.7, 847.3 287.6, 856.72 290.0 C 866.1 292.4, 880.3 290.0, 885.0 290.0 L 885.0 290 L 65.0 290 Z" fill="url(#sentryAreaGrad)" />

  <!-- Glowing Line -->
  <path d="M 65.0 139.5 C 69.7 152.6, 83.9 223.1, 93.28 218.33 C 102.7 213.6, 112.1 124.0, 121.55 110.83 C 131.0 97.7, 140.4 127.6, 149.83 139.5 C 159.3 151.4, 168.7 175.3, 178.1 182.5 C 187.5 189.7, 197.0 178.9, 206.38 182.5 C 215.8 186.1, 225.2 213.6, 234.66 204.0 C 244.1 194.4, 253.5 128.8, 262.93 125.17 C 272.4 121.6, 281.8 174.1, 291.21 182.5 C 300.6 190.9, 310.1 172.9, 319.48 175.33 C 328.9 177.7, 338.3 196.8, 347.76 196.83 C 357.2 196.8, 366.6 174.1, 376.03 175.33 C 385.5 176.5, 394.9 204.0, 404.31 204.0 C 413.7 204.0, 423.2 189.7, 432.59 175.33 C 442.0 161.0, 451.4 118.0, 460.86 118.0 C 470.3 118.0, 479.7 159.8, 489.14 175.33 C 498.6 190.9, 508.0 201.6, 517.41 211.17 C 526.8 220.7, 536.3 229.1, 545.69 232.67 C 555.1 236.3, 564.5 232.7, 573.97 232.67 C 583.4 232.7, 592.8 232.7, 602.24 232.67 C 611.7 232.7, 621.1 232.7, 630.52 232.67 C 639.9 232.7, 649.4 232.7, 658.79 232.67 C 668.2 232.7, 677.6 250.6, 687.07 232.67 C 696.5 214.8, 705.9 119.2, 715.34 125.17 C 724.8 131.1, 734.2 241.0, 743.62 268.5 C 753.0 296.0, 762.5 286.4, 771.9 290.0 C 781.3 293.6, 790.7 292.4, 800.17 290.0 C 809.6 287.6, 819.0 275.7, 828.45 275.67 C 837.9 275.7, 847.3 287.6, 856.72 290.0 C 866.1 292.4, 880.3 290.0, 885.0 290.0" fill="none" stroke="#39ff14" stroke-width="3" filter="url(#neonGlow)" />

  <!-- Data Points -->
  <circle cx="65.0" cy="139.5" r="3.5" fill="#39ff14" stroke="#200009" stroke-width="1.5" /><circle cx="93.28" cy="218.33" r="3.5" fill="#39ff14" stroke="#200009" stroke-width="1.5" /><circle cx="121.55" cy="110.83" r="3.5" fill="#39ff14" stroke="#200009" stroke-width="1.5" /><circle cx="149.83" cy="139.5" r="3.5" fill="#39ff14" stroke="#200009" stroke-width="1.5" /><circle cx="178.1" cy="182.5" r="3.5" fill="#39ff14" stroke="#200009" stroke-width="1.5" /><circle cx="206.38" cy="182.5" r="3.5" fill="#39ff14" stroke="#200009" stroke-width="1.5" /><circle cx="234.66" cy="204.0" r="3.5" fill="#39ff14" stroke="#200009" stroke-width="1.5" /><circle cx="262.93" cy="125.17" r="3.5" fill="#39ff14" stroke="#200009" stroke-width="1.5" /><circle cx="291.21" cy="182.5" r="3.5" fill="#39ff14" stroke="#200009" stroke-width="1.5" /><circle cx="319.48" cy="175.33" r="3.5" fill="#39ff14" stroke="#200009" stroke-width="1.5" /><circle cx="347.76" cy="196.83" r="3.5" fill="#39ff14" stroke="#200009" stroke-width="1.5" /><circle cx="376.03" cy="175.33" r="3.5" fill="#39ff14" stroke="#200009" stroke-width="1.5" /><circle cx="404.31" cy="204.0" r="3.5" fill="#39ff14" stroke="#200009" stroke-width="1.5" /><circle cx="432.59" cy="175.33" r="3.5" fill="#39ff14" stroke="#200009" stroke-width="1.5" /><circle cx="460.86" cy="118.0" r="3.5" fill="#39ff14" stroke="#200009" stroke-width="1.5" /><circle cx="489.14" cy="175.33" r="3.5" fill="#39ff14" stroke="#200009" stroke-width="1.5" /><circle cx="517.41" cy="211.17" r="3.5" fill="#39ff14" stroke="#200009" stroke-width="1.5" /><circle cx="545.69" cy="232.67" r="3.5" fill="#39ff14" stroke="#200009" stroke-width="1.5" /><circle cx="573.97" cy="232.67" r="3.5" fill="#39ff14" stroke="#200009" stroke-width="1.5" /><circle cx="602.24" cy="232.67" r="3.5" fill="#39ff14" stroke="#200009" stroke-width="1.5" /><circle cx="630.52" cy="232.67" r="3.5" fill="#39ff14" stroke="#200009" stroke-width="1.5" /><circle cx="658.79" cy="232.67" r="3.5" fill="#39ff14" stroke="#200009" stroke-width="1.5" /><circle cx="687.07" cy="232.67" r="3.5" fill="#39ff14" stroke="#200009" stroke-width="1.5" /><circle cx="715.34" cy="125.17" r="3.5" fill="#39ff14" stroke="#200009" stroke-width="1.5" /><circle cx="743.62" cy="268.5" r="3.5" fill="#39ff14" stroke="#200009" stroke-width="1.5" /><circle cx="828.45" cy="275.67" r="3.5" fill="#39ff14" stroke="#200009" stroke-width="1.5" />
</svg>
