<svg xmlns="http://www.w3.org/2000/svg" width="920" height="340" viewBox="0 0 920 340" fill="none">
  <defs>
    <linearGradient id="sentryAreaGrad" x1="0" y1="0" x2="0" y2="1">
      <stop offset="0%" stop-color="#88001b" stop-opacity="0.6"/>
      <stop offset="75%" stop-color="#88001b" stop-opacity="0.1"/>
      <stop offset="100%" stop-color="#200009" stop-opacity="0.0"/>
    </linearGradient>
    <filter id="neonGlow" x="-20%" y="-20%" width="140%" height="140%">
      <feGaussianBlur stdDeviation="3" result="blur" />
      <feMerge>
        <feMergeNode in="blur" />
        <feMergeNode in="SourceGraphic" />
      </feMerge>
    </filter>
  </defs>

  <!-- Background Frame -->
  <rect width="920" height="340" rx="12" fill="#200009" stroke="#88001b" stroke-width="1.5" />

  <!-- Window Header Bar -->
  <rect x="0" y="0" width="920" height="42" rx="12" fill="#15000a" />
  <rect x="0" y="32" width="920" height="10" fill="#15000a" />
  <line x1="0" y1="42" x2="920" y2="42" stroke="#88001b" stroke-width="1" />

  <!-- Terminal Traffic Lights -->
  <circle cx="26" cy="21" r="6" fill="#ff5f58" />
  <circle cx="46" cy="21" r="6" fill="#ffbd2e" />
  <circle cx="66" cy="21" r="6" fill="#18c132" />

  <!-- Title -->
  <text x="460" y="26" fill="#e6ffe6" font-family="'Fira Code', Monaco, monospace" font-size="13" font-weight="600" text-anchor="middle">
    WhoIsMrSentry / 30-Day Contribution Activity Graph
  </text>

  <!-- Quick Stat Badges -->
  <text x="885" y="62" fill="#39ff14" font-family="Monaco, Consolas, monospace" font-size="12" font-weight="bold" text-anchor="end">
    Recent Contribs: 415  •  Avg: 13.8/day
  </text>

  <!-- Grids & Axis -->
  <line x1="65" y1="290.0" x2="885" y2="290.0" stroke="#88001b" stroke-opacity="0.3" stroke-dasharray="3,3" /><text x="53" y="294.0" fill="#e6ffe6" font-family="Monaco, Consolas, monospace" font-size="11" text-anchor="end">0</text><line x1="65" y1="238.4" x2="885" y2="238.4" stroke="#88001b" stroke-opacity="0.3" stroke-dasharray="3,3" /><text x="53" y="242.4" fill="#e6ffe6" font-family="Monaco, Consolas, monospace" font-size="11" text-anchor="end">12</text><line x1="65" y1="182.5" x2="885" y2="182.5" stroke="#88001b" stroke-opacity="0.3" stroke-dasharray="3,3" /><text x="53" y="186.5" fill="#e6ffe6" font-family="Monaco, Consolas, monospace" font-size="11" text-anchor="end">25</text><line x1="65" y1="130.9" x2="885" y2="130.9" stroke="#88001b" stroke-opacity="0.3" stroke-dasharray="3,3" /><text x="53" y="134.9" fill="#e6ffe6" font-family="Monaco, Consolas, monospace" font-size="11" text-anchor="end">37</text><line x1="65" y1="75.0" x2="885" y2="75.0" stroke="#88001b" stroke-opacity="0.3" stroke-dasharray="3,3" /><text x="53" y="79.0" fill="#e6ffe6" font-family="Monaco, Consolas, monospace" font-size="11" text-anchor="end">50</text>
  <text x="65.0" y="310" fill="#e6ffe6" font-family="Monaco, Consolas, monospace" font-size="11" text-anchor="middle">08-10</text><text x="206.38" y="310" fill="#e6ffe6" font-family="Monaco, Consolas, monospace" font-size="11" text-anchor="middle">08-15</text><text x="347.76" y="310" fill="#e6ffe6" font-family="Monaco, Consolas, monospace" font-size="11" text-anchor="middle">08-20</text><text x="489.14" y="310" fill="#e6ffe6" font-family="Monaco, Consolas, monospace" font-size="11" text-anchor="middle">08-25</text><text x="630.52" y="310" fill="#e6ffe6" font-family="Monaco, Consolas, monospace" font-size="11" text-anchor="middle">08-30</text><text x="771.9" y="310" fill="#e6ffe6" font-family="Monaco, Consolas, monospace" font-size="11" text-anchor="middle">09-04</text><text x="885.0" y="310" fill="#39ff14" font-family="Monaco, Consolas, monospace" font-size="11" text-anchor="middle">09-08</text>

  <!-- Area Fill -->
  <path d="M 65.0 259.9 C 69.7 259.9, 83.9 287.8, 93.28 259.9 C 102.7 231.9, 112.1 102.2, 121.55 92.2 C 131.0 82.2, 140.4 173.9, 149.83 199.7 C 159.3 225.5, 168.7 249.9, 178.1 247.0 C 187.5 244.1, 197.0 190.4, 206.38 182.5 C 215.8 174.6, 225.2 192.5, 234.66 199.7 C 244.1 206.9, 253.5 221.2, 262.93 225.5 C 272.4 229.8, 281.8 223.3, 291.21 225.5 C 300.6 227.7, 310.1 244.1, 319.48 238.4 C 328.9 232.7, 338.3 193.2, 347.76 191.1 C 357.2 188.9, 366.6 220.5, 376.03 225.5 C 385.5 230.5, 394.9 219.8, 404.31 221.2 C 413.7 222.6, 423.2 234.1, 432.59 234.1 C 442.0 234.1, 451.4 220.5, 460.86 221.2 C 470.3 221.9, 479.7 238.4, 489.14 238.4 C 498.6 238.4, 508.0 229.8, 517.41 221.2 C 526.8 212.6, 536.3 186.8, 545.69 186.8 C 555.1 186.8, 564.5 211.9, 573.97 221.2 C 583.4 230.5, 592.8 237.0, 602.24 242.7 C 611.7 248.4, 621.1 253.4, 630.52 255.6 C 639.9 257.8, 649.4 255.6, 658.79 255.6 C 668.2 255.6, 677.6 255.6, 687.07 255.6 C 696.5 255.6, 705.9 255.6, 715.34 255.6 C 724.8 255.6, 734.2 255.6, 743.62 255.6 C 753.0 255.6, 762.5 266.4, 771.9 255.6 C 781.3 244.8, 790.7 187.5, 800.17 191.1 C 809.6 194.7, 819.0 260.6, 828.45 277.1 C 837.9 293.6, 847.3 287.9, 856.72 290.0 C 866.1 292.1, 880.3 290.0, 885.0 290.0 L 885.0 290 L 65.0 290 Z" fill="url(#sentryAreaGrad)" />

  <!-- Glowing Line -->
  <path d="M 65.0 259.9 C 69.7 259.9, 83.9 287.8, 93.28 259.9 C 102.7 231.9, 112.1 102.2, 121.55 92.2 C 131.0 82.2, 140.4 173.9, 149.83 199.7 C 159.3 225.5, 168.7 249.9, 178.1 247.0 C 187.5 244.1, 197.0 190.4, 206.38 182.5 C 215.8 174.6, 225.2 192.5, 234.66 199.7 C 244.1 206.9, 253.5 221.2, 262.93 225.5 C 272.4 229.8, 281.8 223.3, 291.21 225.5 C 300.6 227.7, 310.1 244.1, 319.48 238.4 C 328.9 232.7, 338.3 193.2, 347.76 191.1 C 357.2 188.9, 366.6 220.5, 376.03 225.5 C 385.5 230.5, 394.9 219.8, 404.31 221.2 C 413.7 222.6, 423.2 234.1, 432.59 234.1 C 442.0 234.1, 451.4 220.5, 460.86 221.2 C 470.3 221.9, 479.7 238.4, 489.14 238.4 C 498.6 238.4, 508.0 229.8, 517.41 221.2 C 526.8 212.6, 536.3 186.8, 545.69 186.8 C 555.1 186.8, 564.5 211.9, 573.97 221.2 C 583.4 230.5, 592.8 237.0, 602.24 242.7 C 611.7 248.4, 621.1 253.4, 630.52 255.6 C 639.9 257.8, 649.4 255.6, 658.79 255.6 C 668.2 255.6, 677.6 255.6, 687.07 255.6 C 696.5 255.6, 705.9 255.6, 715.34 255.6 C 724.8 255.6, 734.2 255.6, 743.62 255.6 C 753.0 255.6, 762.5 266.4, 771.9 255.6 C 781.3 244.8, 790.7 187.5, 800.17 191.1 C 809.6 194.7, 819.0 260.6, 828.45 277.1 C 837.9 293.6, 847.3 287.9, 856.72 290.0 C 866.1 292.1, 880.3 290.0, 885.0 290.0" fill="none" stroke="#39ff14" stroke-width="3" filter="url(#neonGlow)" />

  <!-- Data Points -->
  <circle cx="65.0" cy="259.9" r="3.5" fill="#39ff14" stroke="#200009" stroke-width="1.5" /><circle cx="93.28" cy="259.9" r="3.5" fill="#39ff14" stroke="#200009" stroke-width="1.5" /><circle cx="121.55" cy="92.2" r="3.5" fill="#39ff14" stroke="#200009" stroke-width="1.5" /><circle cx="149.83" cy="199.7" r="3.5" fill="#39ff14" stroke="#200009" stroke-width="1.5" /><circle cx="178.1" cy="247.0" r="3.5" fill="#39ff14" stroke="#200009" stroke-width="1.5" /><circle cx="206.38" cy="182.5" r="3.5" fill="#39ff14" stroke="#200009" stroke-width="1.5" /><circle cx="234.66" cy="199.7" r="3.5" fill="#39ff14" stroke="#200009" stroke-width="1.5" /><circle cx="262.93" cy="225.5" r="3.5" fill="#39ff14" stroke="#200009" stroke-width="1.5" /><circle cx="291.21" cy="225.5" r="3.5" fill="#39ff14" stroke="#200009" stroke-width="1.5" /><circle cx="319.48" cy="238.4" r="3.5" fill="#39ff14" stroke="#200009" stroke-width="1.5" /><circle cx="347.76" cy="191.1" r="3.5" fill="#39ff14" stroke="#200009" stroke-width="1.5" /><circle cx="376.03" cy="225.5" r="3.5" fill="#39ff14" stroke="#200009" stroke-width="1.5" /><circle cx="404.31" cy="221.2" r="3.5" fill="#39ff14" stroke="#200009" stroke-width="1.5" /><circle cx="432.59" cy="234.1" r="3.5" fill="#39ff14" stroke="#200009" stroke-width="1.5" /><circle cx="460.86" cy="221.2" r="3.5" fill="#39ff14" stroke="#200009" stroke-width="1.5" /><circle cx="489.14" cy="238.4" r="3.5" fill="#39ff14" stroke="#200009" stroke-width="1.5" /><circle cx="517.41" cy="221.2" r="3.5" fill="#39ff14" stroke="#200009" stroke-width="1.5" /><circle cx="545.69" cy="186.8" r="3.5" fill="#39ff14" stroke="#200009" stroke-width="1.5" /><circle cx="573.97" cy="221.2" r="3.5" fill="#39ff14" stroke="#200009" stroke-width="1.5" /><circle cx="602.24" cy="242.7" r="3.5" fill="#39ff14" stroke="#200009" stroke-width="1.5" /><circle cx="630.52" cy="255.6" r="3.5" fill="#39ff14" stroke="#200009" stroke-width="1.5" /><circle cx="658.79" cy="255.6" r="3.5" fill="#39ff14" stroke="#200009" stroke-width="1.5" /><circle cx="687.07" cy="255.6" r="3.5" fill="#39ff14" stroke="#200009" stroke-width="1.5" /><circle cx="715.34" cy="255.6" r="3.5" fill="#39ff14" stroke="#200009" stroke-width="1.5" /><circle cx="743.62" cy="255.6" r="3.5" fill="#39ff14" stroke="#200009" stroke-width="1.5" /><circle cx="771.9" cy="255.6" r="3.5" fill="#39ff14" stroke="#200009" stroke-width="1.5" /><circle cx="800.17" cy="191.1" r="3.5" fill="#39ff14" stroke="#200009" stroke-width="1.5" /><circle cx="828.45" cy="277.1" r="3.5" fill="#39ff14" stroke="#200009" stroke-width="1.5" />
</svg>
